<mxfile host="65bd71144e">
    <diagram id="WHtTDJSVfnH05FcJVf9x" name="overview">
        <mxGraphModel dx="3147" dy="1261" grid="0" gridSize="10" guides="1" tooltips="1" connect="1" arrows="1" fold="1" page="0" pageScale="1" pageWidth="850" pageHeight="1100" math="0" shadow="0">
            <root>
                <mxCell id="0"/>
                <mxCell id="1" parent="0"/>
                <mxCell id="Z4uITRpyTshSHfYGFrMf-58" value="" style="rounded=0;whiteSpace=wrap;html=1;sketch=1;dashed=1;strokeColor=#006EAF;fillColor=none;fontColor=#ffffff;" vertex="1" parent="1">
                    <mxGeometry x="-625" y="369" width="832" height="278" as="geometry"/>
                </mxCell>
                <mxCell id="Z4uITRpyTshSHfYGFrMf-50" value="" style="rounded=0;whiteSpace=wrap;html=1;sketch=1;dashed=1;strokeColor=#CCCCCC;fillColor=none;" vertex="1" parent="1">
                    <mxGeometry x="-1059" y="555" width="241" height="157" as="geometry"/>
                </mxCell>
                <mxCell id="rMj7Xm5Ce88Mk3VK5p0u-22" value="" style="rounded=0;whiteSpace=wrap;html=1;sketch=1;dashed=1;strokeColor=#CCCCCC;fillColor=none;" parent="1" vertex="1">
                    <mxGeometry x="-657" y="323" width="889" height="349" as="geometry"/>
                </mxCell>
                <mxCell id="rMj7Xm5Ce88Mk3VK5p0u-4" value="ORG BUCKET" style="outlineConnect=0;fontColor=#232F3E;gradientColor=none;fillColor=#3F8624;strokeColor=none;dashed=0;verticalLabelPosition=bottom;verticalAlign=top;align=center;html=1;fontSize=12;fontStyle=0;aspect=fixed;pointerEvents=1;shape=mxgraph.aws4.bucket;" parent="1" vertex="1">
                    <mxGeometry x="509" y="607" width="75" height="78" as="geometry"/>
                </mxCell>
                <mxCell id="rMj7Xm5Ce88Mk3VK5p0u-7" style="edgeStyle=none;html=1;" parent="1" source="Z4uITRpyTshSHfYGFrMf-32" target="10" edge="1">
                    <mxGeometry relative="1" as="geometry">
                        <mxPoint x="-509.85207612456725" y="697" as="sourcePoint"/>
                        <mxPoint x="-581" y="455" as="targetPoint"/>
                    </mxGeometry>
                </mxCell>
                <mxCell id="20" value="" style="edgeStyle=none;html=1;" parent="1" source="rMj7Xm5Ce88Mk3VK5p0u-14" target="15" edge="1">
                    <mxGeometry x="-0.4597" y="15" relative="1" as="geometry">
                        <mxPoint x="-96" y="404.8464328899638" as="targetPoint"/>
                        <mxPoint as="offset"/>
                    </mxGeometry>
                </mxCell>
                <mxCell id="rMj7Xm5Ce88Mk3VK5p0u-14" value="&lt;span style=&quot;font-family: &amp;quot;Architects Daughter&amp;quot;; font-size: 22px; font-style: italic; font-weight: 700;&quot;&gt;COLLECTOR&lt;/span&gt;" style="rounded=0;whiteSpace=wrap;html=1;fillColor=#1ba1e2;strokeColor=#006EAF;fontColor=#ffffff;" parent="1" vertex="1">
                    <mxGeometry x="-533" y="422.5" width="171" height="65" as="geometry"/>
                </mxCell>
                <mxCell id="rMj7Xm5Ce88Mk3VK5p0u-13" value="" style="sketch=0;html=1;dashed=0;whitespace=wrap;fillColor=#2875E2;strokeColor=#ffffff;points=[[0.005,0.63,0],[0.1,0.2,0],[0.9,0.2,0],[0.5,0,0],[0.995,0.63,0],[0.72,0.99,0],[0.5,1,0],[0.28,0.99,0]];verticalLabelPosition=bottom;align=center;verticalAlign=top;shape=mxgraph.kubernetes.icon;prIcon=pod" parent="1" vertex="1">
                    <mxGeometry x="-612" y="379" width="22" height="24" as="geometry"/>
                </mxCell>
                <mxCell id="19" value="" style="edgeStyle=none;html=1;" parent="1" source="Z4uITRpyTshSHfYGFrMf-30" target="15" edge="1">
                    <mxGeometry relative="1" as="geometry">
                        <mxPoint x="215" y="597.3550051599589" as="sourcePoint"/>
                    </mxGeometry>
                </mxCell>
                <mxCell id="24" value="" style="edgeStyle=orthogonalEdgeStyle;html=1;" parent="1" source="NM7dX4Zz71BjnhUdA4Gc-48" target="rMj7Xm5Ce88Mk3VK5p0u-4" edge="1">
                    <mxGeometry x="-0.7553" y="128" relative="1" as="geometry">
                        <mxPoint as="offset"/>
                        <mxPoint x="546.5" y="419" as="sourcePoint"/>
                    </mxGeometry>
                </mxCell>
                <mxCell id="Z4uITRpyTshSHfYGFrMf-26" style="edgeStyle=none;html=1;fontSize=22;fontColor=#FFFFFF;" edge="1" parent="1" source="10" target="rMj7Xm5Ce88Mk3VK5p0u-14">
                    <mxGeometry relative="1" as="geometry"/>
                </mxCell>
                <mxCell id="10" value="service" style="rounded=0;whiteSpace=wrap;html=1;fillColor=#1ba1e2;strokeColor=#006EAF;rotation=-90;fontFamily=Architects Daughter;fontSource=https%3A%2F%2Ffonts.googleapis.com%2Fcss%3Ffamily%3DArchitects%2BDaughter;fontColor=#ffffff;fontSize=22;" parent="1" vertex="1">
                    <mxGeometry x="-630" y="442" width="92.5" height="26" as="geometry"/>
                </mxCell>
                <mxCell id="Z4uITRpyTshSHfYGFrMf-28" value="" style="group" vertex="1" connectable="0" parent="1">
                    <mxGeometry x="-260" y="415" width="124" height="80" as="geometry"/>
                </mxCell>
                <mxCell id="15" value="" style="sketch=0;pointerEvents=1;shadow=0;dashed=0;html=1;strokeColor=#006EAF;labelPosition=center;verticalLabelPosition=bottom;verticalAlign=top;outlineConnect=0;align=center;shape=mxgraph.office.concepts.folder;fillColor=#1ba1e2;fontColor=#ffffff;" parent="Z4uITRpyTshSHfYGFrMf-28" vertex="1">
                    <mxGeometry width="124" height="80" as="geometry"/>
                </mxCell>
                <mxCell id="16" value="&lt;font face=&quot;Architects Daughter&quot;&gt;&lt;span style=&quot;font-size: 22px;&quot;&gt;DATA&lt;/span&gt;&lt;/font&gt;" style="text;html=1;align=center;verticalAlign=middle;resizable=0;points=[];autosize=1;fontStyle=3;fontColor=#FFFFFF;" parent="Z4uITRpyTshSHfYGFrMf-28" vertex="1">
                    <mxGeometry x="21" y="32" width="74" height="38" as="geometry"/>
                </mxCell>
                <mxCell id="Z4uITRpyTshSHfYGFrMf-29" value="write" style="text;html=1;align=center;verticalAlign=middle;resizable=0;points=[];autosize=1;strokeColor=none;fillColor=none;fontSize=22;fontColor=default;sketch=0;fontFamily=Architects Daughter;fontSource=https%3A%2F%2Ffonts.googleapis.com%2Fcss%3Ffamily%3DArchitects%2BDaughter;" vertex="1" parent="1">
                    <mxGeometry x="-356" y="420" width="72" height="38" as="geometry"/>
                </mxCell>
                <mxCell id="NM7dX4Zz71BjnhUdA4Gc-43" style="edgeStyle=orthogonalEdgeStyle;html=1;fontFamily=Architects Daughter;fontSource=https%3A%2F%2Ffonts.googleapis.com%2Fcss%3Ffamily%3DArchitects%2BDaughter;fontSize=17;fontColor=#FFFFFF;endArrow=classic;endFill=1;" edge="1" parent="1" source="Z4uITRpyTshSHfYGFrMf-30" target="NM7dX4Zz71BjnhUdA4Gc-49">
                    <mxGeometry relative="1" as="geometry">
                        <mxPoint x="467" y="191" as="targetPoint"/>
                        <Array as="points">
                            <mxPoint x="292" y="441"/>
                            <mxPoint x="292" y="382"/>
                        </Array>
                    </mxGeometry>
                </mxCell>
                <mxCell id="NM7dX4Zz71BjnhUdA4Gc-44" style="edgeStyle=orthogonalEdgeStyle;html=1;fontFamily=Architects Daughter;fontSource=https%3A%2F%2Ffonts.googleapis.com%2Fcss%3Ffamily%3DArchitects%2BDaughter;fontSize=17;fontColor=#FFFFFF;endArrow=classic;endFill=1;" edge="1" parent="1" source="Z4uITRpyTshSHfYGFrMf-30" target="rMj7Xm5Ce88Mk3VK5p0u-4">
                    <mxGeometry relative="1" as="geometry">
                        <Array as="points">
                            <mxPoint x="294" y="470"/>
                            <mxPoint x="294" y="646"/>
                        </Array>
                    </mxGeometry>
                </mxCell>
                <mxCell id="Z4uITRpyTshSHfYGFrMf-30" value="&lt;span style=&quot;font-family: &amp;quot;Architects Daughter&amp;quot;; font-size: 22px; font-style: italic; font-weight: 700;&quot;&gt;SHIPPER&lt;/span&gt;" style="rounded=0;whiteSpace=wrap;html=1;fillColor=#1ba1e2;strokeColor=#006EAF;fontColor=#ffffff;" vertex="1" parent="1">
                    <mxGeometry x="10" y="422.5" width="171" height="65" as="geometry"/>
                </mxCell>
                <mxCell id="Z4uITRpyTshSHfYGFrMf-31" value="read" style="text;html=1;align=center;verticalAlign=middle;resizable=0;points=[];autosize=1;strokeColor=none;fillColor=none;fontSize=22;fontColor=default;sketch=0;fontFamily=Architects Daughter;fontSource=https%3A%2F%2Ffonts.googleapis.com%2Fcss%3Ffamily%3DArchitects%2BDaughter;" vertex="1" parent="1">
                    <mxGeometry x="-68" y="422.5" width="65" height="38" as="geometry"/>
                </mxCell>
                <mxCell id="Z4uITRpyTshSHfYGFrMf-41" style="edgeStyle=orthogonalEdgeStyle;html=1;fontFamily=Architects Daughter;fontSource=https%3A%2F%2Ffonts.googleapis.com%2Fcss%3Ffamily%3DArchitects%2BDaughter;fontSize=22;fontColor=default;" edge="1" parent="1" source="Z4uITRpyTshSHfYGFrMf-39" target="10">
                    <mxGeometry relative="1" as="geometry">
                        <Array as="points">
                            <mxPoint x="-705" y="638"/>
                            <mxPoint x="-705" y="455"/>
                        </Array>
                    </mxGeometry>
                </mxCell>
                <mxCell id="Z4uITRpyTshSHfYGFrMf-42" style="edgeStyle=orthogonalEdgeStyle;html=1;fontFamily=Architects Daughter;fontSource=https%3A%2F%2Ffonts.googleapis.com%2Fcss%3Ffamily%3DArchitects%2BDaughter;fontSize=22;fontColor=default;" edge="1" parent="1" source="Z4uITRpyTshSHfYGFrMf-36" target="10">
                    <mxGeometry relative="1" as="geometry">
                        <Array as="points">
                            <mxPoint x="-704" y="272"/>
                            <mxPoint x="-704" y="455"/>
                        </Array>
                    </mxGeometry>
                </mxCell>
                <mxCell id="rMj7Xm5Ce88Mk3VK5p0u-16" value="" style="rounded=0;whiteSpace=wrap;html=1;sketch=1;dashed=1;strokeColor=#CCCCCC;fillColor=none;" parent="1" vertex="1">
                    <mxGeometry x="-1052" y="180" width="241" height="157" as="geometry"/>
                </mxCell>
                <mxCell id="Z4uITRpyTshSHfYGFrMf-44" value="" style="group" vertex="1" connectable="0" parent="1">
                    <mxGeometry x="-1007" y="420" width="194" height="101" as="geometry"/>
                </mxCell>
                <mxCell id="Z4uITRpyTshSHfYGFrMf-49" value="" style="rounded=0;whiteSpace=wrap;html=1;sketch=1;dashed=1;strokeColor=#CCCCCC;fillColor=none;" vertex="1" parent="Z4uITRpyTshSHfYGFrMf-44">
                    <mxGeometry x="-47" y="-56" width="241" height="157" as="geometry"/>
                </mxCell>
                <mxCell id="rMj7Xm5Ce88Mk3VK5p0u-21" value="daemonset" style="text;html=1;align=center;verticalAlign=middle;resizable=0;points=[];autosize=1;strokeColor=none;fillColor=none;dashed=1;sketch=1;" parent="Z4uITRpyTshSHfYGFrMf-44" vertex="1">
                    <mxGeometry x="93" y="65" width="77" height="26" as="geometry"/>
                </mxCell>
                <mxCell id="Z4uITRpyTshSHfYGFrMf-32" value="&lt;font face=&quot;Architects Daughter&quot;&gt;&lt;span style=&quot;font-size: 22px;&quot;&gt;&lt;b&gt;&lt;i&gt;AGENT&lt;/i&gt;&lt;/b&gt;&lt;/span&gt;&lt;/font&gt;" style="rounded=0;whiteSpace=wrap;html=1;fillColor=#1ba1e2;strokeColor=#006EAF;fontColor=#ffffff;" vertex="1" parent="Z4uITRpyTshSHfYGFrMf-44">
                    <mxGeometry width="171" height="65" as="geometry"/>
                </mxCell>
                <mxCell id="Z4uITRpyTshSHfYGFrMf-54" value="" style="sketch=0;html=1;dashed=0;whitespace=wrap;fillColor=#2875E2;strokeColor=#ffffff;points=[[0.005,0.63,0],[0.1,0.2,0],[0.9,0.2,0],[0.5,0,0],[0.995,0.63,0],[0.72,0.99,0],[0.5,1,0],[0.28,0.99,0]];verticalLabelPosition=bottom;align=center;verticalAlign=top;shape=mxgraph.kubernetes.icon;prIcon=node" vertex="1" parent="Z4uITRpyTshSHfYGFrMf-44">
                    <mxGeometry x="-43" y="-49" width="29" height="26" as="geometry"/>
                </mxCell>
                <mxCell id="Z4uITRpyTshSHfYGFrMf-55" value="&lt;font style=&quot;font-size: 13px;&quot;&gt;k8s: node&lt;/font&gt;" style="text;html=1;align=center;verticalAlign=middle;resizable=0;points=[];autosize=1;strokeColor=none;fillColor=none;fontColor=#000000;fontStyle=0;fontFamily=Courier New;" vertex="1" parent="Z4uITRpyTshSHfYGFrMf-44">
                    <mxGeometry x="-14" y="-49" width="88" height="28" as="geometry"/>
                </mxCell>
                <mxCell id="Z4uITRpyTshSHfYGFrMf-65" value="" style="sketch=0;html=1;dashed=0;whitespace=wrap;fillColor=#2875E2;strokeColor=#ffffff;points=[[0.005,0.63,0],[0.1,0.2,0],[0.9,0.2,0],[0.5,0,0],[0.995,0.63,0],[0.72,0.99,0],[0.5,1,0],[0.28,0.99,0]];verticalLabelPosition=bottom;align=center;verticalAlign=top;shape=mxgraph.kubernetes.icon;prIcon=pod" vertex="1" parent="Z4uITRpyTshSHfYGFrMf-44">
                    <mxGeometry x="10" y="20.5" width="22" height="24" as="geometry"/>
                </mxCell>
                <mxCell id="Z4uITRpyTshSHfYGFrMf-47" value="" style="group" vertex="1" connectable="0" parent="1">
                    <mxGeometry x="-1011" y="239" width="174" height="91" as="geometry"/>
                </mxCell>
                <mxCell id="Z4uITRpyTshSHfYGFrMf-35" value="" style="group" vertex="1" connectable="0" parent="Z4uITRpyTshSHfYGFrMf-47">
                    <mxGeometry width="171" height="65" as="geometry"/>
                </mxCell>
                <mxCell id="Z4uITRpyTshSHfYGFrMf-36" value="&lt;font face=&quot;Architects Daughter&quot;&gt;&lt;span style=&quot;font-size: 22px;&quot;&gt;&lt;b&gt;&lt;i&gt;AGENT&lt;/i&gt;&lt;/b&gt;&lt;/span&gt;&lt;/font&gt;" style="rounded=0;whiteSpace=wrap;html=1;fillColor=#1ba1e2;strokeColor=#006EAF;fontColor=#ffffff;" vertex="1" parent="Z4uITRpyTshSHfYGFrMf-35">
                    <mxGeometry width="171" height="65" as="geometry"/>
                </mxCell>
                <mxCell id="Z4uITRpyTshSHfYGFrMf-64" value="" style="sketch=0;html=1;dashed=0;whitespace=wrap;fillColor=#2875E2;strokeColor=#ffffff;points=[[0.005,0.63,0],[0.1,0.2,0],[0.9,0.2,0],[0.5,0,0],[0.995,0.63,0],[0.72,0.99,0],[0.5,1,0],[0.28,0.99,0]];verticalLabelPosition=bottom;align=center;verticalAlign=top;shape=mxgraph.kubernetes.icon;prIcon=pod" vertex="1" parent="Z4uITRpyTshSHfYGFrMf-35">
                    <mxGeometry x="16" y="20.5" width="22" height="24" as="geometry"/>
                </mxCell>
                <mxCell id="Z4uITRpyTshSHfYGFrMf-46" value="daemonset" style="text;html=1;align=center;verticalAlign=middle;resizable=0;points=[];autosize=1;strokeColor=none;fillColor=none;dashed=1;sketch=1;" vertex="1" parent="Z4uITRpyTshSHfYGFrMf-47">
                    <mxGeometry x="97" y="65" width="77" height="26" as="geometry"/>
                </mxCell>
                <mxCell id="Z4uITRpyTshSHfYGFrMf-52" value="" style="sketch=0;html=1;dashed=0;whitespace=wrap;fillColor=#2875E2;strokeColor=#ffffff;points=[[0.005,0.63,0],[0.1,0.2,0],[0.9,0.2,0],[0.5,0,0],[0.995,0.63,0],[0.72,0.99,0],[0.5,1,0],[0.28,0.99,0]];verticalLabelPosition=bottom;align=center;verticalAlign=top;shape=mxgraph.kubernetes.icon;prIcon=node" vertex="1" parent="1">
                    <mxGeometry x="-1046" y="187" width="29" height="26" as="geometry"/>
                </mxCell>
                <mxCell id="Z4uITRpyTshSHfYGFrMf-53" value="&lt;font style=&quot;font-size: 13px;&quot;&gt;k8s: node&lt;/font&gt;" style="text;html=1;align=center;verticalAlign=middle;resizable=0;points=[];autosize=1;strokeColor=none;fillColor=none;fontColor=#000000;fontStyle=0;fontFamily=Courier New;" vertex="1" parent="1">
                    <mxGeometry x="-1017" y="187" width="88" height="28" as="geometry"/>
                </mxCell>
                <mxCell id="Z4uITRpyTshSHfYGFrMf-59" value="" style="sketch=0;html=1;dashed=0;whitespace=wrap;fillColor=#2875E2;strokeColor=#ffffff;points=[[0.005,0.63,0],[0.1,0.2,0],[0.9,0.2,0],[0.5,0,0],[0.995,0.63,0],[0.72,0.99,0],[0.5,1,0],[0.28,0.99,0]];verticalLabelPosition=bottom;align=center;verticalAlign=top;shape=mxgraph.kubernetes.icon;prIcon=node" vertex="1" parent="1">
                    <mxGeometry x="-644" y="328" width="29" height="26" as="geometry"/>
                </mxCell>
                <mxCell id="Z4uITRpyTshSHfYGFrMf-60" value="&lt;font style=&quot;font-size: 13px;&quot;&gt;k8s: node&lt;/font&gt;" style="text;html=1;align=center;verticalAlign=middle;resizable=0;points=[];autosize=1;strokeColor=none;fillColor=none;fontColor=#000000;fontStyle=0;fontFamily=Courier New;" vertex="1" parent="1">
                    <mxGeometry x="-615" y="328" width="88" height="28" as="geometry"/>
                </mxCell>
                <mxCell id="Z4uITRpyTshSHfYGFrMf-62" value="&lt;span style=&quot;font-size: 13px;&quot;&gt;deployment: cloudzero-collector&lt;/span&gt;" style="text;html=1;align=center;verticalAlign=middle;resizable=0;points=[];autosize=1;strokeColor=none;fillColor=none;fontColor=#000000;fontStyle=0;fontFamily=Courier New;" vertex="1" parent="1">
                    <mxGeometry x="-591" y="377" width="260" height="28" as="geometry"/>
                </mxCell>
                <mxCell id="Z4uITRpyTshSHfYGFrMf-43" value="" style="group" vertex="1" connectable="0" parent="1">
                    <mxGeometry x="-1008" y="606" width="171" height="65" as="geometry"/>
                </mxCell>
                <mxCell id="Z4uITRpyTshSHfYGFrMf-39" value="&lt;font face=&quot;Architects Daughter&quot;&gt;&lt;span style=&quot;font-size: 22px;&quot;&gt;&lt;b&gt;&lt;i&gt;AGENT&lt;/i&gt;&lt;/b&gt;&lt;/span&gt;&lt;/font&gt;" style="rounded=0;whiteSpace=wrap;html=1;fillColor=#1ba1e2;strokeColor=#006EAF;fontColor=#ffffff;" vertex="1" parent="Z4uITRpyTshSHfYGFrMf-43">
                    <mxGeometry width="171" height="65" as="geometry"/>
                </mxCell>
                <mxCell id="Z4uITRpyTshSHfYGFrMf-66" value="" style="sketch=0;html=1;dashed=0;whitespace=wrap;fillColor=#2875E2;strokeColor=#ffffff;points=[[0.005,0.63,0],[0.1,0.2,0],[0.9,0.2,0],[0.5,0,0],[0.995,0.63,0],[0.72,0.99,0],[0.5,1,0],[0.28,0.99,0]];verticalLabelPosition=bottom;align=center;verticalAlign=top;shape=mxgraph.kubernetes.icon;prIcon=pod" vertex="1" parent="Z4uITRpyTshSHfYGFrMf-43">
                    <mxGeometry x="16" y="20.5" width="22" height="24" as="geometry"/>
                </mxCell>
                <mxCell id="Z4uITRpyTshSHfYGFrMf-45" value="daemonset" style="text;html=1;align=center;verticalAlign=middle;resizable=0;points=[];autosize=1;strokeColor=none;fillColor=none;dashed=1;sketch=1;" vertex="1" parent="1">
                    <mxGeometry x="-907" y="673" width="77" height="26" as="geometry"/>
                </mxCell>
                <mxCell id="Z4uITRpyTshSHfYGFrMf-56" value="" style="sketch=0;html=1;dashed=0;whitespace=wrap;fillColor=#2875E2;strokeColor=#ffffff;points=[[0.005,0.63,0],[0.1,0.2,0],[0.9,0.2,0],[0.5,0,0],[0.995,0.63,0],[0.72,0.99,0],[0.5,1,0],[0.28,0.99,0]];verticalLabelPosition=bottom;align=center;verticalAlign=top;shape=mxgraph.kubernetes.icon;prIcon=node" vertex="1" parent="1">
                    <mxGeometry x="-1054" y="559" width="29" height="26" as="geometry"/>
                </mxCell>
                <mxCell id="Z4uITRpyTshSHfYGFrMf-57" value="&lt;font style=&quot;font-size: 13px;&quot;&gt;k8s: node&lt;/font&gt;" style="text;html=1;align=center;verticalAlign=middle;resizable=0;points=[];autosize=1;strokeColor=none;fillColor=none;fontColor=#000000;fontStyle=0;fontFamily=Courier New;" vertex="1" parent="1">
                    <mxGeometry x="-1025" y="559" width="88" height="28" as="geometry"/>
                </mxCell>
                <mxCell id="Z4uITRpyTshSHfYGFrMf-67" value="&lt;span style=&quot;font-size: 13px;&quot;&gt;pvc&lt;/span&gt;" style="text;html=1;align=center;verticalAlign=middle;resizable=0;points=[];autosize=1;strokeColor=none;fillColor=none;fontColor=#000000;fontStyle=0;fontFamily=Courier New;" vertex="1" parent="1">
                    <mxGeometry x="-174" y="490" width="41" height="28" as="geometry"/>
                </mxCell>
                <mxCell id="Z4uITRpyTshSHfYGFrMf-68" value="&lt;span style=&quot;font-size: 13px;&quot;&gt;container&lt;/span&gt;" style="text;html=1;align=center;verticalAlign=middle;resizable=0;points=[];autosize=1;strokeColor=none;fillColor=none;fontColor=#000000;fontStyle=0;fontFamily=Courier New;" vertex="1" parent="1">
                    <mxGeometry x="-442" y="485" width="88" height="28" as="geometry"/>
                </mxCell>
                <mxCell id="Z4uITRpyTshSHfYGFrMf-69" value="&lt;span style=&quot;font-size: 13px;&quot;&gt;container&lt;/span&gt;" style="text;html=1;align=center;verticalAlign=middle;resizable=0;points=[];autosize=1;strokeColor=none;fillColor=none;fontColor=#000000;fontStyle=0;fontFamily=Courier New;" vertex="1" parent="1">
                    <mxGeometry x="4" y="485" width="88" height="28" as="geometry"/>
                </mxCell>
                <mxCell id="NM7dX4Zz71BjnhUdA4Gc-33" value="" style="group" vertex="1" connectable="0" parent="1">
                    <mxGeometry x="35.5" y="578" width="120" height="45" as="geometry"/>
                </mxCell>
                <mxCell id="NM7dX4Zz71BjnhUdA4Gc-30" value="&lt;meta charset=&quot;utf-8&quot; style=&quot;font-size: 17px;&quot;&gt;&lt;span style=&quot;font-family: &amp;quot;Architects Daughter&amp;quot;; font-size: 17px; font-style: normal; font-variant-ligatures: normal; font-variant-caps: normal; font-weight: 400; letter-spacing: normal; orphans: 2; text-align: center; text-indent: 0px; text-transform: none; widows: 2; word-spacing: 0px; -webkit-text-stroke-width: 0px; text-decoration-thickness: initial; text-decoration-style: initial; text-decoration-color: initial; float: none; display: inline !important;&quot;&gt;apiToken&lt;/span&gt;" style="shape=parallelogram;perimeter=parallelogramPerimeter;whiteSpace=wrap;html=1;fixedSize=1;fontFamily=Architects Daughter;fontSource=https%3A%2F%2Ffonts.googleapis.com%2Fcss%3Ffamily%3DArchitects%2BDaughter;fontSize=17;fillColor=#1ba1e2;fontColor=#FFFFFF;strokeColor=#006EAF;labelBackgroundColor=none;" vertex="1" parent="NM7dX4Zz71BjnhUdA4Gc-33">
                    <mxGeometry width="120" height="42" as="geometry"/>
                </mxCell>
                <mxCell id="NM7dX4Zz71BjnhUdA4Gc-32" value="" style="sketch=0;html=1;dashed=0;whitespace=wrap;fillColor=#2875E2;strokeColor=#ffffff;points=[[0.005,0.63,0],[0.1,0.2,0],[0.9,0.2,0],[0.5,0,0],[0.995,0.63,0],[0.72,0.99,0],[0.5,1,0],[0.28,0.99,0]];verticalLabelPosition=bottom;align=center;verticalAlign=top;shape=mxgraph.kubernetes.icon;prIcon=secret;fontFamily=Architects Daughter;fontSource=https%3A%2F%2Ffonts.googleapis.com%2Fcss%3Ffamily%3DArchitects%2BDaughter;fontSize=14;" vertex="1" parent="NM7dX4Zz71BjnhUdA4Gc-33">
                    <mxGeometry x="6.5" y="18" width="19" height="27" as="geometry"/>
                </mxCell>
                <mxCell id="NM7dX4Zz71BjnhUdA4Gc-34" style="edgeStyle=orthogonalEdgeStyle;html=1;fontFamily=Architects Daughter;fontSource=https%3A%2F%2Ffonts.googleapis.com%2Fcss%3Ffamily%3DArchitects%2BDaughter;fontSize=17;fontColor=#FFFFFF;" edge="1" parent="1" source="NM7dX4Zz71BjnhUdA4Gc-30" target="Z4uITRpyTshSHfYGFrMf-30">
                    <mxGeometry relative="1" as="geometry"/>
                </mxCell>
                <mxCell id="NM7dX4Zz71BjnhUdA4Gc-36" style="edgeStyle=orthogonalEdgeStyle;html=1;fontFamily=Architects Daughter;fontSource=https%3A%2F%2Ffonts.googleapis.com%2Fcss%3Ffamily%3DArchitects%2BDaughter;fontSize=17;fontColor=#FFFFFF;" edge="1" parent="1" source="NM7dX4Zz71BjnhUdA4Gc-35" target="Z4uITRpyTshSHfYGFrMf-30">
                    <mxGeometry relative="1" as="geometry">
                        <Array as="points">
                            <mxPoint x="-198" y="541"/>
                            <mxPoint x="96" y="541"/>
                        </Array>
                    </mxGeometry>
                </mxCell>
                <mxCell id="NM7dX4Zz71BjnhUdA4Gc-37" style="edgeStyle=orthogonalEdgeStyle;html=1;fontFamily=Architects Daughter;fontSource=https%3A%2F%2Ffonts.googleapis.com%2Fcss%3Ffamily%3DArchitects%2BDaughter;fontSize=17;fontColor=#FFFFFF;" edge="1" parent="1" source="NM7dX4Zz71BjnhUdA4Gc-35" target="rMj7Xm5Ce88Mk3VK5p0u-14">
                    <mxGeometry relative="1" as="geometry">
                        <Array as="points">
                            <mxPoint x="-198" y="541"/>
                            <mxPoint x="-447" y="541"/>
                        </Array>
                    </mxGeometry>
                </mxCell>
                <mxCell id="NM7dX4Zz71BjnhUdA4Gc-38" style="edgeStyle=orthogonalEdgeStyle;html=1;fontFamily=Architects Daughter;fontSource=https%3A%2F%2Ffonts.googleapis.com%2Fcss%3Ffamily%3DArchitects%2BDaughter;fontSize=17;fontColor=#FFFFFF;endArrow=none;endFill=0;dashed=1;" edge="1" parent="1" source="NM7dX4Zz71BjnhUdA4Gc-35" target="NM7dX4Zz71BjnhUdA4Gc-30">
                    <mxGeometry relative="1" as="geometry"/>
                </mxCell>
                <mxCell id="NM7dX4Zz71BjnhUdA4Gc-35" value="config.yaml" style="strokeWidth=2;html=1;shape=mxgraph.flowchart.document2;whiteSpace=wrap;size=0.25;labelBackgroundColor=none;sketch=0;fontFamily=Architects Daughter;fontSource=https%3A%2F%2Ffonts.googleapis.com%2Fcss%3Ffamily%3DArchitects%2BDaughter;fontSize=17;fontColor=#ffffff;fillColor=#1ba1e2;strokeColor=#006EAF;" vertex="1" parent="1">
                    <mxGeometry x="-270.5" y="569" width="145" height="60" as="geometry"/>
                </mxCell>
                <mxCell id="NM7dX4Zz71BjnhUdA4Gc-39" value="&lt;span style=&quot;font-size: 13px;&quot;&gt;configMap&lt;/span&gt;" style="text;html=1;align=center;verticalAlign=middle;resizable=0;points=[];autosize=1;strokeColor=none;fillColor=none;fontColor=#000000;fontStyle=0;fontFamily=Courier New;" vertex="1" parent="1">
                    <mxGeometry x="-205" y="619" width="88" height="28" as="geometry"/>
                </mxCell>
                <mxCell id="NM7dX4Zz71BjnhUdA4Gc-40" value="&lt;span style=&quot;font-size: 13px;&quot;&gt;externalSecret&lt;/span&gt;" style="text;html=1;align=center;verticalAlign=middle;resizable=0;points=[];autosize=1;strokeColor=none;fillColor=none;fontColor=#000000;fontStyle=0;fontFamily=Courier New;" vertex="1" parent="1">
                    <mxGeometry x="28.5" y="619.5" width="127" height="28" as="geometry"/>
                </mxCell>
                <mxCell id="NM7dX4Zz71BjnhUdA4Gc-48" value="" style="sketch=0;outlineConnect=0;fontColor=#ffffff;fillColor=#1ba1e2;strokeColor=#006EAF;dashed=0;verticalLabelPosition=bottom;verticalAlign=top;align=center;html=1;fontSize=12;fontStyle=0;aspect=fixed;pointerEvents=1;shape=mxgraph.aws4.lambda_function;labelBackgroundColor=none;fontFamily=Architects Daughter;fontSource=https%3A%2F%2Ffonts.googleapis.com%2Fcss%3Ffamily%3DArchitects%2BDaughter;" vertex="1" parent="1">
                    <mxGeometry x="507.5" y="469" width="78" height="78" as="geometry"/>
                </mxCell>
                <mxCell id="NM7dX4Zz71BjnhUdA4Gc-51" style="html=1;fontFamily=Architects Daughter;fontSource=https%3A%2F%2Ffonts.googleapis.com%2Fcss%3Ffamily%3DArchitects%2BDaughter;fontSize=17;fontColor=#FFFFFF;endArrow=classic;endFill=1;" edge="1" parent="1" source="NM7dX4Zz71BjnhUdA4Gc-49" target="NM7dX4Zz71BjnhUdA4Gc-50">
                    <mxGeometry relative="1" as="geometry"/>
                </mxCell>
                <mxCell id="NM7dX4Zz71BjnhUdA4Gc-52" style="edgeStyle=none;html=1;fontFamily=Architects Daughter;fontSource=https%3A%2F%2Ffonts.googleapis.com%2Fcss%3Ffamily%3DArchitects%2BDaughter;fontSize=17;fontColor=#FFFFFF;endArrow=classic;endFill=1;" edge="1" parent="1" source="NM7dX4Zz71BjnhUdA4Gc-49" target="NM7dX4Zz71BjnhUdA4Gc-48">
                    <mxGeometry relative="1" as="geometry"/>
                </mxCell>
                <mxCell id="NM7dX4Zz71BjnhUdA4Gc-49" value="" style="sketch=0;points=[[0,0,0],[0.25,0,0],[0.5,0,0],[0.75,0,0],[1,0,0],[0,1,0],[0.25,1,0],[0.5,1,0],[0.75,1,0],[1,1,0],[0,0.25,0],[0,0.5,0],[0,0.75,0],[1,0.25,0],[1,0.5,0],[1,0.75,0]];outlineConnect=0;fontColor=#232F3E;gradientColor=#945DF2;gradientDirection=north;fillColor=#5A30B5;strokeColor=#ffffff;dashed=0;verticalLabelPosition=bottom;verticalAlign=top;align=center;html=1;fontSize=12;fontStyle=0;aspect=fixed;shape=mxgraph.aws4.resourceIcon;resIcon=mxgraph.aws4.api_gateway;labelBackgroundColor=none;fontFamily=Architects Daughter;fontSource=https%3A%2F%2Ffonts.googleapis.com%2Fcss%3Ffamily%3DArchitects%2BDaughter;" vertex="1" parent="1">
                    <mxGeometry x="507.5" y="343" width="78" height="78" as="geometry"/>
                </mxCell>
                <mxCell id="NM7dX4Zz71BjnhUdA4Gc-50" value="" style="sketch=0;outlineConnect=0;fontColor=#ffffff;fillColor=#a20025;strokeColor=#6F0000;dashed=0;verticalLabelPosition=bottom;verticalAlign=top;align=center;html=1;fontSize=12;fontStyle=0;aspect=fixed;pointerEvents=1;shape=mxgraph.aws4.lambda_function;labelBackgroundColor=none;fontFamily=Architects Daughter;fontSource=https%3A%2F%2Ffonts.googleapis.com%2Fcss%3Ffamily%3DArchitects%2BDaughter;" vertex="1" parent="1">
                    <mxGeometry x="509" y="221" width="78" height="78" as="geometry"/>
                </mxCell>
                <mxCell id="NM7dX4Zz71BjnhUdA4Gc-53" value="&lt;span style=&quot;color: rgb(0, 0, 0); font-size: 11px; font-style: normal; font-variant-ligatures: normal; font-variant-caps: normal; font-weight: 400; letter-spacing: normal; orphans: 2; text-indent: 0px; text-transform: none; widows: 2; word-spacing: 0px; -webkit-text-stroke-width: 0px; text-decoration-thickness: initial; text-decoration-style: initial; text-decoration-color: initial; float: none; display: inline !important;&quot;&gt;Authorizer Lambda&lt;/span&gt;" style="text;whiteSpace=wrap;html=1;fontSize=17;fontFamily=Architects Daughter;fontColor=#FFFFFF;fontSource=https%3A%2F%2Ffonts.googleapis.com%2Fcss%3Ffamily%3DArchitects%2BDaughter;labelBackgroundColor=none;align=center;verticalAlign=middle;" vertex="1" parent="1">
                    <mxGeometry x="480.00333333333344" y="191.00484848484848" width="142" height="42" as="geometry"/>
                </mxCell>
                <mxCell id="NM7dX4Zz71BjnhUdA4Gc-54" value="&lt;span style=&quot;color: rgb(0, 0, 0); font-size: 11px; font-style: normal; font-variant-ligatures: normal; font-variant-caps: normal; font-weight: 400; letter-spacing: normal; orphans: 2; text-align: center; text-indent: 0px; text-transform: none; widows: 2; word-spacing: 0px; -webkit-text-stroke-width: 0px; text-decoration-thickness: initial; text-decoration-style: initial; text-decoration-color: initial; float: none; display: inline !important;&quot;&gt;Upload API Lambda&lt;/span&gt;" style="text;whiteSpace=wrap;html=1;fontSize=17;fontFamily=Architects Daughter;fontColor=#FFFFFF;fontSource=https%3A%2F%2Ffonts.googleapis.com%2Fcss%3Ffamily%3DArchitects%2BDaughter;labelBackgroundColor=default;" vertex="1" parent="1">
                    <mxGeometry x="496.00333333333344" y="425.0048484848485" width="142" height="42" as="geometry"/>
                </mxCell>
                <mxCell id="NM7dX4Zz71BjnhUdA4Gc-55" value="&lt;div style=&quot;text-align: center;&quot;&gt;&lt;span style=&quot;font-size: 11px;&quot;&gt;&lt;font color=&quot;#000000&quot;&gt;Allocate PUT URLs&lt;/font&gt;&lt;/span&gt;&lt;/div&gt;" style="text;whiteSpace=wrap;html=1;fontSize=17;fontFamily=Architects Daughter;fontColor=#FFFFFF;fontSource=https%3A%2F%2Ffonts.googleapis.com%2Fcss%3Ffamily%3DArchitects%2BDaughter;labelBackgroundColor=default;" vertex="1" parent="1">
                    <mxGeometry x="499.00333333333344" y="552.0048484848485" width="142" height="42" as="geometry"/>
                </mxCell>
                <mxCell id="NM7dX4Zz71BjnhUdA4Gc-56" value="CloudZero AWS Account" style="points=[[0,0],[0.25,0],[0.5,0],[0.75,0],[1,0],[1,0.25],[1,0.5],[1,0.75],[1,1],[0.75,1],[0.5,1],[0.25,1],[0,1],[0,0.75],[0,0.5],[0,0.25]];outlineConnect=0;gradientColor=none;html=1;whiteSpace=wrap;fontSize=12;fontStyle=0;container=1;pointerEvents=0;collapsible=0;recursiveResize=0;shape=mxgraph.aws4.group;grIcon=mxgraph.aws4.group_aws_cloud;strokeColor=#232F3E;fillColor=none;verticalAlign=top;align=left;spacingLeft=30;fontColor=#232F3E;dashed=0;labelBackgroundColor=none;sketch=0;fontFamily=Architects Daughter;fontSource=https%3A%2F%2Ffonts.googleapis.com%2Fcss%3Ffamily%3DArchitects%2BDaughter;" vertex="1" parent="1">
                    <mxGeometry x="436" y="147" width="217" height="584" as="geometry"/>
                </mxCell>
                <mxCell id="NM7dX4Zz71BjnhUdA4Gc-58" value="&lt;div style=&quot;text-align: center;&quot;&gt;&lt;span style=&quot;font-size: 11px;&quot;&gt;&lt;font color=&quot;#000000&quot;&gt;/container-metrics/upload&lt;/font&gt;&lt;/span&gt;&lt;/div&gt;" style="text;whiteSpace=wrap;html=1;fontSize=17;fontFamily=Architects Daughter;fontColor=#FFFFFF;fontSource=https%3A%2F%2Ffonts.googleapis.com%2Fcss%3Ffamily%3DArchitects%2BDaughter;labelBackgroundColor=default;" vertex="1" parent="1">
                    <mxGeometry x="294.00333333333344" y="348.0048484848485" width="142" height="42" as="geometry"/>
                </mxCell>
                <mxCell id="NM7dX4Zz71BjnhUdA4Gc-59" value="&lt;div style=&quot;text-align: center;&quot;&gt;&lt;span style=&quot;font-size: 11px;&quot;&gt;&lt;font color=&quot;#000000&quot;&gt;POST&lt;/font&gt;&lt;/span&gt;&lt;/div&gt;" style="text;whiteSpace=wrap;html=1;fontSize=17;fontFamily=Architects Daughter;fontColor=#FFFFFF;fontSource=https%3A%2F%2Ffonts.googleapis.com%2Fcss%3Ffamily%3DArchitects%2BDaughter;labelBackgroundColor=none;" vertex="1" parent="1">
                    <mxGeometry x="301.00333333333344" y="643.0048484848485" width="142" height="42" as="geometry"/>
                </mxCell>
                <mxCell id="NM7dX4Zz71BjnhUdA4Gc-61" value="Customer Cloud" style="points=[[0,0],[0.25,0],[0.5,0],[0.75,0],[1,0],[1,0.25],[1,0.5],[1,0.75],[1,1],[0.75,1],[0.5,1],[0.25,1],[0,1],[0,0.75],[0,0.5],[0,0.25]];outlineConnect=0;gradientColor=none;html=1;whiteSpace=wrap;fontSize=12;fontStyle=0;container=1;pointerEvents=0;collapsible=0;recursiveResize=0;shape=mxgraph.aws4.group;grIcon=mxgraph.aws4.group_aws_cloud_alt;strokeColor=#232F3E;fillColor=none;verticalAlign=top;align=left;spacingLeft=30;fontColor=#232F3E;dashed=0;labelBackgroundColor=none;sketch=0;fontFamily=Architects Daughter;fontSource=https%3A%2F%2Ffonts.googleapis.com%2Fcss%3Ffamily%3DArchitects%2BDaughter;" vertex="1" parent="1">
                    <mxGeometry x="-1070" y="145" width="1478" height="589" as="geometry"/>
                </mxCell>
            </root>
        </mxGraphModel>
    </diagram>
    <diagram id="FYoTzlr_L39hX0J2PqXk" name="Page-2">
        <mxGraphModel dx="3026" dy="1409" grid="1" gridSize="10" guides="1" tooltips="1" connect="1" arrows="1" fold="1" page="1" pageScale="1" pageWidth="850" pageHeight="1100" math="0" shadow="0">
            <root>
                <mxCell id="0"/>
                <mxCell id="1" parent="0"/>
                <mxCell id="FoJkXEYPXgPc2blL2yz_-1" value="" style="rounded=1;whiteSpace=wrap;html=1;fontFamily=Architects Daughter;fontSource=https%3A%2F%2Ffonts.googleapis.com%2Fcss%3Ffamily%3DArchitects%2BDaughter;fontSize=14;dashed=1;" vertex="1" parent="1">
                    <mxGeometry x="-612" y="309" width="229" height="452" as="geometry"/>
                </mxCell>
                <mxCell id="FoJkXEYPXgPc2blL2yz_-2" value="" style="rounded=0;whiteSpace=wrap;html=1;fontFamily=Courier New;fontSize=13;" vertex="1" parent="1">
                    <mxGeometry x="775" y="434" width="516" height="117" as="geometry"/>
                </mxCell>
                <mxCell id="FoJkXEYPXgPc2blL2yz_-3" value="" style="rounded=1;whiteSpace=wrap;html=1;fontFamily=Architects Daughter;fontSource=https%3A%2F%2Ffonts.googleapis.com%2Fcss%3Ffamily%3DArchitects%2BDaughter;fontSize=14;dashed=1;" vertex="1" parent="1">
                    <mxGeometry x="71.25" y="694" width="625.5" height="89" as="geometry"/>
                </mxCell>
                <mxCell id="FoJkXEYPXgPc2blL2yz_-4" value="" style="rounded=1;whiteSpace=wrap;html=1;fontFamily=Architects Daughter;fontSource=https%3A%2F%2Ffonts.googleapis.com%2Fcss%3Ffamily%3DArchitects%2BDaughter;fontSize=14;dashed=1;" vertex="1" parent="1">
                    <mxGeometry x="-113" y="153" width="357" height="89" as="geometry"/>
                </mxCell>
                <mxCell id="FoJkXEYPXgPc2blL2yz_-5" value="" style="rounded=1;whiteSpace=wrap;html=1;fontFamily=Architects Daughter;fontSource=https%3A%2F%2Ffonts.googleapis.com%2Fcss%3Ffamily%3DArchitects%2BDaughter;fontSize=14;dashed=1;" vertex="1" parent="1">
                    <mxGeometry x="-201" y="383.5" width="543" height="89" as="geometry"/>
                </mxCell>
                <mxCell id="FoJkXEYPXgPc2blL2yz_-6" value="External Secret&lt;br style=&quot;font-size: 14px;&quot;&gt;CRD" style="rounded=0;whiteSpace=wrap;html=1;fontFamily=Architects Daughter;fontSource=https%3A%2F%2Ffonts.googleapis.com%2Fcss%3Ffamily%3DArchitects%2BDaughter;fontStyle=1;fontSize=14;" vertex="1" parent="1">
                    <mxGeometry x="-89" y="171" width="120" height="60" as="geometry"/>
                </mxCell>
                <mxCell id="FoJkXEYPXgPc2blL2yz_-7" style="edgeStyle=none;html=1;entryX=0.5;entryY=0;entryDx=0;entryDy=0;fontFamily=Architects Daughter;fontSource=https%3A%2F%2Ffonts.googleapis.com%2Fcss%3Ffamily%3DArchitects%2BDaughter;fontSize=14;exitX=0.762;exitY=0.993;exitDx=0;exitDy=0;exitPerimeter=0;" edge="1" parent="1" source="FoJkXEYPXgPc2blL2yz_-4" target="FoJkXEYPXgPc2blL2yz_-10">
                    <mxGeometry relative="1" as="geometry">
                        <mxPoint x="162" y="252" as="sourcePoint"/>
                    </mxGeometry>
                </mxCell>
                <mxCell id="FoJkXEYPXgPc2blL2yz_-8" value="Secret Store&lt;br style=&quot;font-size: 14px;&quot;&gt;CRD" style="rounded=0;whiteSpace=wrap;html=1;fontFamily=Architects Daughter;fontSource=https%3A%2F%2Ffonts.googleapis.com%2Fcss%3Ffamily%3DArchitects%2BDaughter;fontStyle=1;fontSize=14;" vertex="1" parent="1">
                    <mxGeometry x="100" y="171" width="120" height="60" as="geometry"/>
                </mxCell>
                <mxCell id="FoJkXEYPXgPc2blL2yz_-9" value="External Secret&lt;br style=&quot;font-size: 14px;&quot;&gt;Resource" style="rounded=0;whiteSpace=wrap;html=1;fontFamily=Architects Daughter;fontSource=https%3A%2F%2Ffonts.googleapis.com%2Fcss%3Ffamily%3DArchitects%2BDaughter;fontStyle=1;fontSize=14;" vertex="1" parent="1">
                    <mxGeometry x="-89" y="282" width="120" height="60" as="geometry"/>
                </mxCell>
                <mxCell id="FoJkXEYPXgPc2blL2yz_-10" value="Secret Store&lt;br style=&quot;font-size: 14px;&quot;&gt;Resource" style="rounded=0;whiteSpace=wrap;html=1;fontFamily=Architects Daughter;fontSource=https%3A%2F%2Ffonts.googleapis.com%2Fcss%3Ffamily%3DArchitects%2BDaughter;fontStyle=1;fontSize=14;" vertex="1" parent="1">
                    <mxGeometry x="99" y="282" width="120" height="60" as="geometry"/>
                </mxCell>
                <mxCell id="FoJkXEYPXgPc2blL2yz_-11" value="external-secrets" style="rounded=0;whiteSpace=wrap;html=1;fontFamily=Architects Daughter;fontSource=https%3A%2F%2Ffonts.googleapis.com%2Fcss%3Ffamily%3DArchitects%2BDaughter;fontStyle=1;fontSize=14;" vertex="1" parent="1">
                    <mxGeometry x="-177.5" y="398" width="120" height="60" as="geometry"/>
                </mxCell>
                <mxCell id="FoJkXEYPXgPc2blL2yz_-12" value="external-secrets-cert-controller" style="rounded=0;whiteSpace=wrap;html=1;fontFamily=Architects Daughter;fontSource=https%3A%2F%2Ffonts.googleapis.com%2Fcss%3Ffamily%3DArchitects%2BDaughter;fontStyle=1;fontSize=14;" vertex="1" parent="1">
                    <mxGeometry x="11.5" y="398" width="120" height="60" as="geometry"/>
                </mxCell>
                <mxCell id="FoJkXEYPXgPc2blL2yz_-13" value="external-secrets-webhook" style="rounded=0;whiteSpace=wrap;html=1;fontFamily=Architects Daughter;fontSource=https%3A%2F%2Ffonts.googleapis.com%2Fcss%3Ffamily%3DArchitects%2BDaughter;fontStyle=1;fontSize=14;" vertex="1" parent="1">
                    <mxGeometry x="201" y="398" width="120" height="60" as="geometry"/>
                </mxCell>
                <mxCell id="FoJkXEYPXgPc2blL2yz_-14" value="Custom Resource Definitions" style="text;html=1;strokeColor=none;fillColor=none;align=center;verticalAlign=middle;whiteSpace=wrap;rounded=0;dashed=1;fontFamily=Architects Daughter;fontSource=https%3A%2F%2Ffonts.googleapis.com%2Fcss%3Ffamily%3DArchitects%2BDaughter;fontSize=14;" vertex="1" parent="1">
                    <mxGeometry x="-63.5" y="118" width="258" height="30" as="geometry"/>
                </mxCell>
                <mxCell id="FoJkXEYPXgPc2blL2yz_-15" value="Custom Controller" style="text;html=1;strokeColor=none;fillColor=none;align=center;verticalAlign=middle;whiteSpace=wrap;rounded=0;dashed=1;fontFamily=Architects Daughter;fontSource=https%3A%2F%2Ffonts.googleapis.com%2Fcss%3Ffamily%3DArchitects%2BDaughter;fontSize=14;" vertex="1" parent="1">
                    <mxGeometry x="-63" y="358" width="258" height="30" as="geometry"/>
                </mxCell>
                <mxCell id="FoJkXEYPXgPc2blL2yz_-16" style="edgeStyle=none;html=1;entryX=0.5;entryY=0;entryDx=0;entryDy=0;fontFamily=Architects Daughter;fontSource=https%3A%2F%2Ffonts.googleapis.com%2Fcss%3Ffamily%3DArchitects%2BDaughter;fontSize=14;exitX=0.762;exitY=0.993;exitDx=0;exitDy=0;exitPerimeter=0;" edge="1" parent="1">
                    <mxGeometry relative="1" as="geometry">
                        <mxPoint x="-29.136000000000195" y="241.99699999999996" as="sourcePoint"/>
                        <mxPoint x="-29.170000000000073" y="282.62" as="targetPoint"/>
                    </mxGeometry>
                </mxCell>
                <mxCell id="FoJkXEYPXgPc2blL2yz_-17" style="edgeStyle=none;html=1;entryX=0.5;entryY=0;entryDx=0;entryDy=0;fontFamily=Architects Daughter;fontSource=https%3A%2F%2Ffonts.googleapis.com%2Fcss%3Ffamily%3DArchitects%2BDaughter;fontSize=14;exitX=0.762;exitY=0.993;exitDx=0;exitDy=0;exitPerimeter=0;" edge="1" parent="1">
                    <mxGeometry relative="1" as="geometry">
                        <mxPoint x="-29.136000000000195" y="342.87699999999995" as="sourcePoint"/>
                        <mxPoint x="-29.170000000000073" y="383.5" as="targetPoint"/>
                    </mxGeometry>
                </mxCell>
                <mxCell id="FoJkXEYPXgPc2blL2yz_-18" style="edgeStyle=none;html=1;entryX=0.5;entryY=0;entryDx=0;entryDy=0;fontFamily=Architects Daughter;fontSource=https%3A%2F%2Ffonts.googleapis.com%2Fcss%3Ffamily%3DArchitects%2BDaughter;fontSize=14;exitX=0.762;exitY=0.993;exitDx=0;exitDy=0;exitPerimeter=0;" edge="1" parent="1">
                    <mxGeometry relative="1" as="geometry">
                        <mxPoint x="156.03399999999988" y="342.87699999999995" as="sourcePoint"/>
                        <mxPoint x="156" y="383.5" as="targetPoint"/>
                    </mxGeometry>
                </mxCell>
                <mxCell id="FoJkXEYPXgPc2blL2yz_-19" style="edgeStyle=none;html=1;entryX=0.5;entryY=0;entryDx=0;entryDy=0;fontFamily=Architects Daughter;fontSource=https%3A%2F%2Ffonts.googleapis.com%2Fcss%3Ffamily%3DArchitects%2BDaughter;fontSize=14;exitX=0.762;exitY=0.993;exitDx=0;exitDy=0;exitPerimeter=0;" edge="1" parent="1">
                    <mxGeometry relative="1" as="geometry">
                        <mxPoint x="-26.716000000000122" y="472.49699999999996" as="sourcePoint"/>
                        <mxPoint x="-26.75" y="513.1199999999999" as="targetPoint"/>
                    </mxGeometry>
                </mxCell>
                <mxCell id="FoJkXEYPXgPc2blL2yz_-20" style="edgeStyle=none;html=1;entryX=0.5;entryY=0;entryDx=0;entryDy=0;fontFamily=Architects Daughter;fontSource=https%3A%2F%2Ffonts.googleapis.com%2Fcss%3Ffamily%3DArchitects%2BDaughter;fontSize=14;exitX=0.762;exitY=0.993;exitDx=0;exitDy=0;exitPerimeter=0;" edge="1" parent="1">
                    <mxGeometry relative="1" as="geometry">
                        <mxPoint x="158.45400000000018" y="472.49699999999996" as="sourcePoint"/>
                        <mxPoint x="158.41999999999985" y="513.1199999999999" as="targetPoint"/>
                    </mxGeometry>
                </mxCell>
                <mxCell id="FoJkXEYPXgPc2blL2yz_-21" style="edgeStyle=none;html=1;entryX=0.939;entryY=0.494;entryDx=0;entryDy=0;fontFamily=Architects Daughter;fontSource=https%3A%2F%2Ffonts.googleapis.com%2Fcss%3Ffamily%3DArchitects%2BDaughter;fontSize=14;entryPerimeter=0;" edge="1" parent="1" source="FoJkXEYPXgPc2blL2yz_-22" target="FoJkXEYPXgPc2blL2yz_-34">
                    <mxGeometry relative="1" as="geometry"/>
                </mxCell>
                <mxCell id="FoJkXEYPXgPc2blL2yz_-22" value="External Secret" style="rounded=0;whiteSpace=wrap;html=1;fontFamily=Architects Daughter;fontSource=https%3A%2F%2Ffonts.googleapis.com%2Fcss%3Ffamily%3DArchitects%2BDaughter;fontStyle=1;fontSize=14;" vertex="1" parent="1">
                    <mxGeometry x="-88" y="514" width="120" height="60" as="geometry"/>
                </mxCell>
                <mxCell id="FoJkXEYPXgPc2blL2yz_-23" style="edgeStyle=none;html=1;fontFamily=Architects Daughter;fontSource=https%3A%2F%2Ffonts.googleapis.com%2Fcss%3Ffamily%3DArchitects%2BDaughter;fontSize=14;" edge="1" parent="1" source="FoJkXEYPXgPc2blL2yz_-24" target="FoJkXEYPXgPc2blL2yz_-22">
                    <mxGeometry relative="1" as="geometry"/>
                </mxCell>
                <mxCell id="FoJkXEYPXgPc2blL2yz_-24" value="Secret Store" style="rounded=0;whiteSpace=wrap;html=1;fontFamily=Architects Daughter;fontSource=https%3A%2F%2Ffonts.googleapis.com%2Fcss%3Ffamily%3DArchitects%2BDaughter;fontStyle=1;fontSize=14;" vertex="1" parent="1">
                    <mxGeometry x="100" y="514" width="120" height="60" as="geometry"/>
                </mxCell>
                <mxCell id="FoJkXEYPXgPc2blL2yz_-25" style="edgeStyle=none;html=1;entryX=1;entryY=0.5;entryDx=0;entryDy=0;fontFamily=Architects Daughter;fontSource=https%3A%2F%2Ffonts.googleapis.com%2Fcss%3Ffamily%3DArchitects%2BDaughter;fontSize=14;startArrow=classic;startFill=1;" edge="1" parent="1" source="FoJkXEYPXgPc2blL2yz_-28" target="FoJkXEYPXgPc2blL2yz_-24">
                    <mxGeometry relative="1" as="geometry"/>
                </mxCell>
                <mxCell id="FoJkXEYPXgPc2blL2yz_-26" style="edgeStyle=none;html=1;fontFamily=Architects Daughter;fontSource=https%3A%2F%2Ffonts.googleapis.com%2Fcss%3Ffamily%3DArchitects%2BDaughter;fontSize=14;" edge="1" parent="1" source="FoJkXEYPXgPc2blL2yz_-28" target="FoJkXEYPXgPc2blL2yz_-3">
                    <mxGeometry relative="1" as="geometry"/>
                </mxCell>
                <mxCell id="FoJkXEYPXgPc2blL2yz_-27" style="html=1;fontFamily=Courier New;fontSize=13;" edge="1" parent="1" source="FoJkXEYPXgPc2blL2yz_-28">
                    <mxGeometry relative="1" as="geometry">
                        <mxPoint x="745" y="547" as="targetPoint"/>
                    </mxGeometry>
                </mxCell>
                <mxCell id="FoJkXEYPXgPc2blL2yz_-28" value="provider" style="rhombus;whiteSpace=wrap;html=1;fontFamily=Architects Daughter;fontSource=https%3A%2F%2Ffonts.googleapis.com%2Fcss%3Ffamily%3DArchitects%2BDaughter;fontSize=14;" vertex="1" parent="1">
                    <mxGeometry x="306" y="504" width="156" height="80" as="geometry"/>
                </mxCell>
                <mxCell id="FoJkXEYPXgPc2blL2yz_-29" value="Kubernetes Cluster" style="rounded=0;whiteSpace=wrap;html=1;fontFamily=Architects Daughter;fontSource=https%3A%2F%2Ffonts.googleapis.com%2Fcss%3Ffamily%3DArchitects%2BDaughter;fontStyle=1;fontSize=14;" vertex="1" parent="1">
                    <mxGeometry x="105.25" y="708.5" width="120" height="60" as="geometry"/>
                </mxCell>
                <mxCell id="FoJkXEYPXgPc2blL2yz_-30" value="Azure Key Vault" style="rounded=0;whiteSpace=wrap;html=1;fontFamily=Architects Daughter;fontSource=https%3A%2F%2Ffonts.googleapis.com%2Fcss%3Ffamily%3DArchitects%2BDaughter;fontStyle=1;fontSize=14;" vertex="1" parent="1">
                    <mxGeometry x="249.25" y="708.5" width="120" height="60" as="geometry"/>
                </mxCell>
                <mxCell id="FoJkXEYPXgPc2blL2yz_-31" value="Hashicorp Vault" style="rounded=0;whiteSpace=wrap;html=1;fontFamily=Architects Daughter;fontSource=https%3A%2F%2Ffonts.googleapis.com%2Fcss%3Ffamily%3DArchitects%2BDaughter;fontStyle=1;fontSize=14;" vertex="1" parent="1">
                    <mxGeometry x="393.25" y="708.5" width="120" height="60" as="geometry"/>
                </mxCell>
                <mxCell id="FoJkXEYPXgPc2blL2yz_-32" value="Google Secrets Manager" style="rounded=0;whiteSpace=wrap;html=1;fontFamily=Architects Daughter;fontSource=https%3A%2F%2Ffonts.googleapis.com%2Fcss%3Ffamily%3DArchitects%2BDaughter;fontStyle=1;fontSize=14;" vertex="1" parent="1">
                    <mxGeometry x="537.25" y="708.5" width="120" height="60" as="geometry"/>
                </mxCell>
                <mxCell id="FoJkXEYPXgPc2blL2yz_-33" value="Other external Secrets Providers" style="text;html=1;strokeColor=none;fillColor=none;align=center;verticalAlign=middle;whiteSpace=wrap;rounded=0;dashed=1;fontFamily=Architects Daughter;fontSource=https%3A%2F%2Ffonts.googleapis.com%2Fcss%3Ffamily%3DArchitects%2BDaughter;fontSize=14;" vertex="1" parent="1">
                    <mxGeometry x="63" y="664" width="258" height="30" as="geometry"/>
                </mxCell>
                <mxCell id="FoJkXEYPXgPc2blL2yz_-34" value="" style="shape=parallelogram;perimeter=parallelogramPerimeter;whiteSpace=wrap;html=1;fixedSize=1;fontFamily=Architects Daughter;fontSource=https%3A%2F%2Ffonts.googleapis.com%2Fcss%3Ffamily%3DArchitects%2BDaughter;fontSize=14;" vertex="1" parent="1">
                    <mxGeometry x="-282" y="514" width="120" height="60" as="geometry"/>
                </mxCell>
                <mxCell id="FoJkXEYPXgPc2blL2yz_-35" value="cloudzero-api-token-secret" style="text;html=1;strokeColor=none;fillColor=none;align=center;verticalAlign=middle;whiteSpace=wrap;rounded=0;dashed=1;fontFamily=Architects Daughter;fontSource=https%3A%2F%2Ffonts.googleapis.com%2Fcss%3Ffamily%3DArchitects%2BDaughter;fontSize=14;" vertex="1" parent="1">
                    <mxGeometry x="-343" y="490" width="258" height="30" as="geometry"/>
                </mxCell>
                <mxCell id="FoJkXEYPXgPc2blL2yz_-36" style="html=1;entryX=1.012;entryY=0.52;entryDx=0;entryDy=0;entryPerimeter=0;fontFamily=Courier New;fontSize=13;startArrow=none;startFill=0;" edge="1" parent="1" target="FoJkXEYPXgPc2blL2yz_-1">
                    <mxGeometry relative="1" as="geometry">
                        <mxPoint x="-273" y="543" as="sourcePoint"/>
                    </mxGeometry>
                </mxCell>
                <mxCell id="FoJkXEYPXgPc2blL2yz_-37" value="apiToken" style="text;html=1;strokeColor=none;fillColor=none;align=center;verticalAlign=middle;whiteSpace=wrap;rounded=0;dashed=1;fontFamily=Architects Daughter;fontSource=https%3A%2F%2Ffonts.googleapis.com%2Fcss%3Ffamily%3DArchitects%2BDaughter;fontSize=14;" vertex="1" parent="1">
                    <mxGeometry x="-268.5" y="529" width="91" height="30" as="geometry"/>
                </mxCell>
                <mxCell id="FoJkXEYPXgPc2blL2yz_-38" value="" style="sketch=0;html=1;dashed=0;whitespace=wrap;fillColor=#2875E2;strokeColor=#ffffff;points=[[0.005,0.63,0],[0.1,0.2,0],[0.9,0.2,0],[0.5,0,0],[0.995,0.63,0],[0.72,0.99,0],[0.5,1,0],[0.28,0.99,0]];verticalLabelPosition=bottom;align=center;verticalAlign=top;shape=mxgraph.kubernetes.icon;prIcon=secret;fontFamily=Architects Daughter;fontSource=https%3A%2F%2Ffonts.googleapis.com%2Fcss%3Ffamily%3DArchitects%2BDaughter;fontSize=14;" vertex="1" parent="1">
                    <mxGeometry x="-264" y="513" width="19" height="27" as="geometry"/>
                </mxCell>
                <mxCell id="FoJkXEYPXgPc2blL2yz_-39" value="apiToken: xxxx" style="rounded=0;whiteSpace=wrap;html=1;fontFamily=Architects Daughter;fontSource=https%3A%2F%2Ffonts.googleapis.com%2Fcss%3Ffamily%3DArchitects%2BDaughter;fontSize=14;" vertex="1" parent="1">
                    <mxGeometry x="904" y="470" width="257" height="36" as="geometry"/>
                </mxCell>
                <mxCell id="FoJkXEYPXgPc2blL2yz_-40" value="dev/&lt;span style=&quot;color: rgb(214, 157, 133); background-color: var(--vscode-textPreformat-background); font-size: 13px; text-align: left;&quot;&gt;cloudzero-secret-api-key&lt;/span&gt;" style="text;html=1;strokeColor=none;fillColor=none;align=center;verticalAlign=middle;whiteSpace=wrap;rounded=0;dashed=1;fontFamily=Courier New;fontSize=13;fontStyle=0" vertex="1" parent="1">
                    <mxGeometry x="904" y="506" width="258" height="30" as="geometry"/>
                </mxCell>
                <mxCell id="FoJkXEYPXgPc2blL2yz_-41" value="" style="sketch=0;points=[[0,0,0],[0.25,0,0],[0.5,0,0],[0.75,0,0],[1,0,0],[0,1,0],[0.25,1,0],[0.5,1,0],[0.75,1,0],[1,1,0],[0,0.25,0],[0,0.5,0],[0,0.75,0],[1,0.25,0],[1,0.5,0],[1,0.75,0]];outlineConnect=0;fontColor=#232F3E;gradientColor=#F54749;gradientDirection=north;fillColor=#C7131F;strokeColor=#ffffff;dashed=0;verticalLabelPosition=bottom;verticalAlign=top;align=center;html=1;fontSize=12;fontStyle=0;aspect=fixed;shape=mxgraph.aws4.resourceIcon;resIcon=mxgraph.aws4.secrets_manager;fontFamily=Courier New;" vertex="1" parent="1">
                    <mxGeometry x="775" y="434" width="29" height="29" as="geometry"/>
                </mxCell>
                <mxCell id="FoJkXEYPXgPc2blL2yz_-42" value="AWS Secrets Manager" style="text;html=1;strokeColor=none;fillColor=none;align=center;verticalAlign=middle;whiteSpace=wrap;rounded=0;dashed=1;fontFamily=Architects Daughter;fontSource=https%3A%2F%2Ffonts.googleapis.com%2Fcss%3Ffamily%3DArchitects%2BDaughter;fontSize=14;" vertex="1" parent="1">
                    <mxGeometry x="767" y="435" width="258" height="30" as="geometry"/>
                </mxCell>
                <mxCell id="FoJkXEYPXgPc2blL2yz_-43" value="" style="sketch=0;outlineConnect=0;fontColor=#232F3E;gradientColor=none;fillColor=#BF0816;strokeColor=none;dashed=0;verticalLabelPosition=bottom;verticalAlign=top;align=center;html=1;fontSize=12;fontStyle=0;aspect=fixed;pointerEvents=1;shape=mxgraph.aws4.role;fontFamily=Courier New;" vertex="1" parent="1">
                    <mxGeometry x="816" y="672.5" width="46.09" height="26" as="geometry"/>
                </mxCell>
                <mxCell id="FoJkXEYPXgPc2blL2yz_-44" value="" style="rounded=0;whiteSpace=wrap;html=1;fontFamily=Courier New;fontSize=13;" vertex="1" parent="1">
                    <mxGeometry x="775" y="627" width="516" height="117" as="geometry"/>
                </mxCell>
                <mxCell id="FoJkXEYPXgPc2blL2yz_-45" value="" style="sketch=0;points=[[0,0,0],[0.25,0,0],[0.5,0,0],[0.75,0,0],[1,0,0],[0,1,0],[0.25,1,0],[0.5,1,0],[0.75,1,0],[1,1,0],[0,0.25,0],[0,0.5,0],[0,0.75,0],[1,0.25,0],[1,0.5,0],[1,0.75,0]];outlineConnect=0;fontColor=#232F3E;gradientColor=#F54749;gradientDirection=north;fillColor=#C7131F;strokeColor=#ffffff;dashed=0;verticalLabelPosition=bottom;verticalAlign=top;align=center;html=1;fontSize=12;fontStyle=0;aspect=fixed;shape=mxgraph.aws4.resourceIcon;resIcon=mxgraph.aws4.key_management_service;fontFamily=Courier New;" vertex="1" parent="1">
                    <mxGeometry x="775" y="627" width="31" height="31" as="geometry"/>
                </mxCell>
                <mxCell id="FoJkXEYPXgPc2blL2yz_-46" style="edgeStyle=none;html=1;fontFamily=Courier New;fontSize=13;" edge="1" parent="1" source="FoJkXEYPXgPc2blL2yz_-47">
                    <mxGeometry relative="1" as="geometry">
                        <mxPoint x="1182.665" y="553.5" as="targetPoint"/>
                    </mxGeometry>
                </mxCell>
                <mxCell id="FoJkXEYPXgPc2blL2yz_-47" value="" style="sketch=0;outlineConnect=0;fontColor=#232F3E;gradientColor=none;fillColor=#BF0816;strokeColor=none;dashed=0;verticalLabelPosition=bottom;verticalAlign=top;align=center;html=1;fontSize=12;fontStyle=0;aspect=fixed;pointerEvents=1;shape=mxgraph.aws4.permissions;fontFamily=Courier New;" vertex="1" parent="1">
                    <mxGeometry x="1162" y="656" width="41.33" height="52" as="geometry"/>
                </mxCell>
                <mxCell id="FoJkXEYPXgPc2blL2yz_-48" value="policy" style="text;html=1;strokeColor=none;fillColor=none;align=center;verticalAlign=middle;whiteSpace=wrap;rounded=0;dashed=1;fontFamily=Courier New;fontSize=13;fontStyle=0" vertex="1" parent="1">
                    <mxGeometry x="1139.16" y="707" width="87" height="30" as="geometry"/>
                </mxCell>
                <mxCell id="FoJkXEYPXgPc2blL2yz_-49" style="edgeStyle=none;html=1;fontFamily=Courier New;fontSize=13;" edge="1" parent="1" source="FoJkXEYPXgPc2blL2yz_-50" target="FoJkXEYPXgPc2blL2yz_-52">
                    <mxGeometry relative="1" as="geometry"/>
                </mxCell>
                <mxCell id="FoJkXEYPXgPc2blL2yz_-50" value="" style="sketch=0;outlineConnect=0;fontColor=#232F3E;gradientColor=none;fillColor=#BF0816;strokeColor=none;dashed=0;verticalLabelPosition=bottom;verticalAlign=top;align=center;html=1;fontSize=12;fontStyle=0;aspect=fixed;pointerEvents=1;shape=mxgraph.aws4.sts_alternate;fontFamily=Courier New;" vertex="1" parent="1">
                    <mxGeometry x="869.0300000000001" y="660" width="34.97" height="44" as="geometry"/>
                </mxCell>
                <mxCell id="FoJkXEYPXgPc2blL2yz_-51" style="edgeStyle=none;html=1;fontFamily=Courier New;fontSize=13;" edge="1" parent="1" source="FoJkXEYPXgPc2blL2yz_-52" target="FoJkXEYPXgPc2blL2yz_-47">
                    <mxGeometry relative="1" as="geometry"/>
                </mxCell>
                <mxCell id="FoJkXEYPXgPc2blL2yz_-52" value="" style="sketch=0;outlineConnect=0;fontColor=#232F3E;gradientColor=none;fillColor=#BF0816;strokeColor=none;dashed=0;verticalLabelPosition=bottom;verticalAlign=top;align=center;html=1;fontSize=12;fontStyle=0;aspect=fixed;pointerEvents=1;shape=mxgraph.aws4.role;fontFamily=Courier New;" vertex="1" parent="1">
                    <mxGeometry x="994" y="663" width="63.82" height="36" as="geometry"/>
                </mxCell>
                <mxCell id="FoJkXEYPXgPc2blL2yz_-53" value="AWS Cloud" style="points=[[0,0],[0.25,0],[0.5,0],[0.75,0],[1,0],[1,0.25],[1,0.5],[1,0.75],[1,1],[0.75,1],[0.5,1],[0.25,1],[0,1],[0,0.75],[0,0.5],[0,0.25]];outlineConnect=0;gradientColor=none;html=1;whiteSpace=wrap;fontSize=12;fontStyle=0;container=1;pointerEvents=0;collapsible=0;recursiveResize=0;shape=mxgraph.aws4.group;grIcon=mxgraph.aws4.group_aws_cloud_alt;strokeColor=#232F3E;fillColor=none;verticalAlign=top;align=left;spacingLeft=30;fontColor=#232F3E;dashed=0;fontFamily=Courier New;" vertex="1" parent="1">
                    <mxGeometry x="746" y="398" width="575" height="375" as="geometry"/>
                </mxCell>
                <mxCell id="FoJkXEYPXgPc2blL2yz_-54" value="" style="sketch=0;html=1;dashed=0;whitespace=wrap;fillColor=#2875E2;strokeColor=#ffffff;points=[[0.005,0.63,0],[0.1,0.2,0],[0.9,0.2,0],[0.5,0,0],[0.995,0.63,0],[0.72,0.99,0],[0.5,1,0],[0.28,0.99,0]];verticalLabelPosition=bottom;align=center;verticalAlign=top;shape=mxgraph.kubernetes.icon;prIcon=pod;fontFamily=Courier New;fontSize=13;" vertex="1" parent="1">
                    <mxGeometry x="-599" y="324.5" width="50" height="48" as="geometry"/>
                </mxCell>
                <mxCell id="FoJkXEYPXgPc2blL2yz_-55" value="cloudzero-validator" style="rounded=0;whiteSpace=wrap;html=1;fontFamily=Architects Daughter;fontSource=https%3A%2F%2Ffonts.googleapis.com%2Fcss%3Ffamily%3DArchitects%2BDaughter;fontStyle=1;fontSize=14;" vertex="1" parent="1">
                    <mxGeometry x="-558" y="402.5" width="120" height="60" as="geometry"/>
                </mxCell>
                <mxCell id="FoJkXEYPXgPc2blL2yz_-56" value="cloudzero-agent" style="rounded=0;whiteSpace=wrap;html=1;fontFamily=Architects Daughter;fontSource=https%3A%2F%2Ffonts.googleapis.com%2Fcss%3Ffamily%3DArchitects%2BDaughter;fontStyle=1;fontSize=14;" vertex="1" parent="1">
                    <mxGeometry x="-558" y="519.5" width="120" height="60" as="geometry"/>
                </mxCell>
                <mxCell id="FoJkXEYPXgPc2blL2yz_-57" value="cloudzero-insights" style="rounded=0;whiteSpace=wrap;html=1;fontFamily=Architects Daughter;fontSource=https%3A%2F%2Ffonts.googleapis.com%2Fcss%3Ffamily%3DArchitects%2BDaughter;fontStyle=1;fontSize=14;" vertex="1" parent="1">
                    <mxGeometry x="-558" y="637" width="120" height="60" as="geometry"/>
                </mxCell>
                <mxCell id="FoJkXEYPXgPc2blL2yz_-58" value="Deployments" style="text;html=1;strokeColor=none;fillColor=none;align=center;verticalAlign=middle;whiteSpace=wrap;rounded=0;dashed=1;fontFamily=Architects Daughter;fontSource=https%3A%2F%2Ffonts.googleapis.com%2Fcss%3Ffamily%3DArchitects%2BDaughter;fontSize=17;" vertex="1" parent="1">
                    <mxGeometry x="-547" y="332" width="109" height="30" as="geometry"/>
                </mxCell>
            </root>
        </mxGraphModel>
    </diagram>
</mxfile>